<svg xmlns="http://www.w3.org/2000/svg" xmlns:xlink="http://www.w3.org/1999/xlink" version="1.1" x="0px" y="0px" viewBox="0 0 100 125" enable-background="new 0 0 100 100" xml:space="preserve"><g><g><path d="M79.693,29c-2.904,0-6.237-0.609-9.905-1.811c-2.703-0.886-4.49-0.918-5.673-0.939c-1.004-0.018-1.73-0.031-2.305-0.551    c-1.538-1.391-5.071-5.271-4.662-11.232c0.36-5.257,5.484-8.67,7.561-9.208c0.479-0.124,1.062-0.187,1.734-0.187    c1.383,0,2.766,0.26,3.085,0.324c0.363,0.008,0.89-0.012,1.465-0.037c0.998-0.042,2.143-0.088,2.978-0.004    c1.69,0.167,3.438,0.341,4.585,1.828c0.428,0.554,3.222,3.609,3.734,3.923c0.562,0.281,3.501,1.938,4.057,2.354l0.406,0.299    c2.464,1.803,2.958,2.247,3.133,2.563c0.322,0.581,1.782,3.689-1.139,7.816c-0.455,0.643-2.152,1.775-2.805,2.198    c-0.417,0.494-2.098,2.376-3.646,2.513l-0.275,0.026C81.503,28.924,80.722,29,79.693,29z M66.443,6.571    c-0.546,0-1.003,0.046-1.357,0.139c-1.272,0.33-6.117,3.133-6.441,7.859c-0.363,5.306,2.797,8.773,4.172,10.018    c0.158,0.143,0.699,0.152,1.326,0.164c1.272,0.023,3.195,0.058,6.112,1.013c3.518,1.152,6.692,1.737,9.438,1.737    c0.956,0,1.665-0.069,2.183-0.119l0.287-0.027c0.831-0.073,2.174-1.419,2.693-2.059c0.05-0.062,0.11-0.116,0.177-0.159    c1.034-0.664,2.281-1.571,2.489-1.865c2.402-3.395,1.297-5.779,1.051-6.223c-0.229-0.267-2.093-1.631-2.706-2.079l-0.421-0.31    c-0.445-0.334-3.278-1.938-3.844-2.222c-0.827-0.414-4.015-4.055-4.234-4.339c-0.701-0.909-1.807-1.079-3.546-1.252    c-0.772-0.075-1.84-0.028-2.767,0.011c-0.662,0.027-1.258,0.049-1.649,0.034c-0.042-0.002-0.083-0.007-0.123-0.016    C69.269,6.873,67.825,6.571,66.443,6.571z"/></g><g><path fill="none" d="M85.271,25.476"/></g><g><path d="M74.74,17.847c-1.088,0.583-5.189,0.121-6.656-0.812c-2.745-1.746-4.056-4.237-3.063-6.278    c0.563-1.156,1.962-2.217,3.313-2.188c1.27,0.028,2.995,1.775,4.125,2.875c1.188,1.156,3.277,2.206,3.781,3.719    C76.521,16.007,75.959,17.194,74.74,17.847z"/></g><g><path d="M86.834,20.819c0.602-0.156,0.656-1.813,0.594-2.281s-0.766-1.906-1.75-2.438c-0.55-0.297-1.938,0.935-1.281,2.219    c0.318,0.622,0.801,0.438,1.439,1.188C86.18,19.91,86.423,20.926,86.834,20.819z"/></g><g><path d="M72.696,25.379L72.696,25.379c-0.367,0-0.595-0.143-0.721-0.263c-0.148-0.141-0.232-0.337-0.233-0.542    c-0.001-0.289-0.183-1.329-0.454-2.241c-0.146-0.488-0.07-0.965,0.213-1.345c0.587-0.788,1.779-0.828,2.013-0.828    c0.133,0,0.251,0.01,0.347,0.025c0.576,0.092,1.25,0.57,1.639,1.163c0.338,0.517,0.443,1.077,0.302,1.62    C75.414,24.464,73.57,25.379,72.696,25.379z M73.514,21.661c-0.375,0-0.744,0.134-0.81,0.224c0.187,0.593,0.349,1.29,0.445,1.854    c0.458-0.209,1.067-0.635,1.2-1.146c0.011-0.044,0.046-0.179-0.092-0.401c-0.194-0.312-0.538-0.504-0.636-0.525    C73.594,21.663,73.556,21.661,73.514,21.661z"/></g><g><path d="M75.995,26.276L75.995,26.276c-0.367,0-0.595-0.143-0.721-0.263c-0.148-0.141-0.232-0.337-0.233-0.542    c-0.001-0.289-0.183-1.329-0.454-2.241c-0.146-0.488-0.07-0.965,0.213-1.345c0.587-0.788,1.779-0.828,2.013-0.828    c0.133,0,0.251,0.01,0.347,0.025c0.576,0.092,1.25,0.57,1.639,1.163c0.338,0.517,0.443,1.077,0.302,1.62    C78.713,25.361,76.869,26.276,75.995,26.276z M76.813,22.558c-0.375,0-0.744,0.134-0.81,0.224c0.187,0.593,0.349,1.29,0.445,1.854    c0.458-0.209,1.067-0.635,1.2-1.146c0.011-0.044,0.046-0.179-0.092-0.401c-0.194-0.312-0.538-0.504-0.636-0.525    C76.893,22.56,76.854,22.558,76.813,22.558z"/></g><g><path d="M79.284,26.838L79.284,26.838c-0.367,0-0.595-0.143-0.721-0.263c-0.148-0.141-0.232-0.337-0.233-0.542    c-0.001-0.289-0.183-1.329-0.454-2.241c-0.146-0.488-0.07-0.965,0.213-1.345c0.587-0.788,1.779-0.828,2.013-0.828    c0.133,0,0.251,0.01,0.347,0.025c0.576,0.092,1.25,0.57,1.639,1.163c0.338,0.517,0.443,1.077,0.302,1.62    C82.002,25.923,80.158,26.838,79.284,26.838z M80.102,23.12c-0.375,0-0.744,0.134-0.81,0.224c0.187,0.593,0.349,1.29,0.445,1.854    c0.458-0.209,1.067-0.635,1.2-1.146c0.011-0.044,0.046-0.179-0.092-0.401c-0.194-0.312-0.538-0.504-0.636-0.525    C80.182,23.121,80.144,23.12,80.102,23.12z"/></g><g><path d="M82.732,27.536L82.732,27.536c-0.367,0-0.595-0.143-0.721-0.263c-0.148-0.141-0.232-0.337-0.233-0.542    c-0.001-0.289-0.183-1.329-0.454-2.241c-0.146-0.488-0.07-0.965,0.213-1.345c0.587-0.788,1.779-0.828,2.013-0.828    c0.133,0,0.251,0.01,0.347,0.025c0.576,0.092,1.25,0.57,1.639,1.163c0.338,0.517,0.443,1.077,0.302,1.62    C85.45,26.621,83.606,27.536,82.732,27.536z M83.55,23.817c-0.375,0-0.744,0.134-0.81,0.224c0.187,0.593,0.349,1.29,0.445,1.854    c0.458-0.209,1.067-0.635,1.2-1.146c0.011-0.044,0.046-0.179-0.092-0.401c-0.194-0.312-0.538-0.504-0.636-0.525    C83.63,23.819,83.592,23.817,83.55,23.817z"/></g><g><path d="M55.847,30.161c-0.025,0-0.133-0.006-0.157-0.008c-0.855-0.085-2.16-0.783-2.667-1.648    c-0.446-0.763-0.745-2.761,0.126-3.605c0.293-0.284,0.624-0.428,0.983-0.428c0.132,0,0.245,0.019,0.337,0.039    c0.238-0.282,0.654-0.958,0.781-1.292c0.356-0.94,1.009-1.329,1.713-1.083c0.188,0.065,0.621,0.216,1.63,2.072    c0.152,0.127,0.577,0.334,0.84,0.462c0.871,0.425,1.955,0.954,1.68,1.965c-0.273,1.002-1.332,1.125-1.9,1.19    c-0.142,0.017-0.276,0.029-0.387,0.058c-0.5,0.128-1.282,0.528-1.417,0.725C57.258,29.114,56.934,30.161,55.847,30.161z     M55.838,28.661l0.009,0.75v-0.75C55.844,28.661,55.842,28.661,55.838,28.661z M54.206,25.988    c-0.185,0.217-0.145,1.321,0.111,1.758c0.222,0.379,1.037,0.842,1.48,0.909c0.065-0.107,0.141-0.35,0.184-0.488    c0.364-1.167,2.449-1.731,2.471-1.737c0.168-0.043,0.372-0.069,0.587-0.094c0.078-0.009,0.184-0.021,0.288-0.037    c-0.184-0.101-0.396-0.204-0.553-0.281c-0.547-0.267-1.063-0.519-1.365-0.878c-0.034-0.04-0.063-0.083-0.088-0.128    c-0.229-0.428-0.498-0.871-0.704-1.173c-0.229,0.541-0.876,1.631-1.365,1.987C54.927,26.061,54.449,26.045,54.206,25.988z"/></g><g><path d="M45.216,41.947c-0.635,0-1.497-0.08-2.012-0.305c-0.536-0.234-2.207-1.387-2.168-2.358    c0.021-0.519,0.435-0.964,0.915-1.479c0.179-0.192,0.382-0.411,0.468-0.542c0.04-0.074,0.114-0.37,0.168-0.585    c0.216-0.86,0.512-2.038,1.476-2.543c0.261-0.135,0.576-0.108,0.809,0.072c0.279,0.217,2.746,2.157,3.412,3.472    c0.181,0.356,0.05,0.792-0.297,0.99c-0.949,0.542-0.996,0.702-1.075,0.968c0.01,0.008,0.055,0.207,0.085,0.338    c0.108,0.472,0.309,1.351-0.434,1.75C46.46,41.78,46.15,41.947,45.216,41.947z M42.613,39.317c0.252,0.302,0.846,0.8,1.191,0.95    c0.202,0.088,0.786,0.18,1.412,0.18c0.138,0,0.252-0.005,0.346-0.012c-0.01-0.045-0.02-0.089-0.028-0.126    c-0.083-0.362-0.168-0.736-0.062-1.098c0.165-0.556,0.38-0.93,1.079-1.415c-0.524-0.626-1.384-1.408-2.093-1.996    c-0.192,0.346-0.322,0.862-0.417,1.243c-0.109,0.436-0.196,0.779-0.368,1.042c-0.156,0.238-0.384,0.483-0.625,0.742    C42.92,38.964,42.732,39.167,42.613,39.317z"/></g><g><path d="M40.315,53.952c-0.568,0-2.188-0.337-2.623-0.867c-0.143-0.174-0.22-0.46-0.176-0.68c0.035-0.172,0.121-0.36,0.357-0.857    c0.105-0.22,0.217-0.445,0.271-0.586c-0.039-1.45,0.127-2.287,0.535-2.768c0.19-0.225,0.46-0.348,0.76-0.348    c0.495,0,0.949,0.338,1.389,0.666c0.1,0.074,0.238,0.177,0.331,0.237c0.113-0.022,0.272-0.064,0.441-0.106    c0.42-0.104,0.854-0.21,1.189-0.21c0.444,0,0.685,0.196,0.808,0.36c0.337,0.45,0.143,1.007-0.082,1.653    c-0.06,0.171-0.149,0.429-0.161,0.515c0.018,0.028,0.087,0.184,0.151,0.349c0.234,0.597,0.5,1.272,0,1.733    c-0.442,0.408-2.526,0.871-3.058,0.906C40.431,53.948,40.332,53.952,40.315,53.952z M39.211,52.229    c0.353,0.112,0.817,0.223,1.104,0.223v0.75l0.036-0.751c0.393-0.026,1.287-0.253,1.825-0.426c-0.023-0.062-0.047-0.121-0.066-0.17    c-0.127-0.324-0.237-0.604-0.251-0.863c-0.015-0.26,0.063-0.528,0.198-0.919c-0.034,0.008-0.066,0.017-0.097,0.024    c-0.413,0.102-0.676,0.164-0.895,0.164c-0.396,0-0.721-0.242-1.132-0.548c-0.061-0.045-0.142-0.106-0.225-0.165    c-0.046,0.266-0.084,0.7-0.063,1.393c0,0.008,0.003,0.104,0.003,0.111c0,0.248-0.101,0.472-0.42,1.141    C39.222,52.206,39.217,52.218,39.211,52.229z"/></g><g><path d="M39.545,59.456c-0.02,0-2.045-0.084-2.542-0.685c-0.143-0.173-0.213-0.436-0.171-0.655    c0.033-0.171,0.115-0.341,0.341-0.783c0.083-0.163,0.17-0.33,0.223-0.447c-0.09-1.223,0.061-1.98,0.468-2.423    c0.19-0.207,0.459-0.321,0.756-0.321c0.441,0,0.881,0.246,1.306,0.484c0.115,0.064,0.279,0.155,0.374,0.198    c0.105-0.021,0.287-0.071,0.482-0.121c0.441-0.112,0.898-0.229,1.229-0.229c0.293,0,0.529,0.09,0.703,0.266    c0.435,0.442,0.213,1.052,0.018,1.59c-0.041,0.113-0.085,0.224-0.111,0.314c0.033,0.071,0.08,0.154,0.125,0.24    c0.248,0.471,0.623,1.183,0.047,1.672c-0.425,0.36-2.459,0.836-2.98,0.888C39.734,59.451,39.643,59.456,39.545,59.456z     M38.596,57.843c0.356,0.071,0.807,0.136,1.064,0.108c0.379-0.038,1.19-0.246,1.734-0.413c-0.139-0.265-0.256-0.497-0.284-0.739    c-0.024-0.208,0.022-0.423,0.098-0.656c-0.02,0.005-0.038,0.01-0.056,0.014c-0.399,0.103-0.654,0.165-0.858,0.175    c-0.001,0-0.002,0-0.003,0c-0.388,0-0.717-0.184-1.097-0.396c-0.08-0.045-0.191-0.107-0.299-0.163    c-0.027,0.205-0.042,0.539,0.002,1.064c0,0.01,0.007,0.095,0.007,0.104C38.916,57.174,38.838,57.363,38.596,57.843z"/></g><g><path d="M41.66,47.699c-0.15,0-0.282-0.006-0.387-0.019c-0.618-0.07-1.963-0.709-2.302-1.266c-0.121-0.198-0.16-0.517-0.078-0.733    c0.06-0.156,0.175-0.335,0.465-0.771c0.137-0.206,0.282-0.417,0.354-0.546c0.231-1.425,0.528-2.214,0.968-2.615    c0.178-0.162,0.405-0.25,0.642-0.25c0.576,0,0.97,0.478,1.352,0.939c0.071,0.087,0.138,0.172,0.199,0.24    c0.101-0.006,0.217-0.017,0.338-0.027c0.243-0.021,0.502-0.042,0.718-0.042c0.218,0,0.883,0,1.126,0.566    c0.203,0.475-0.049,0.951-0.369,1.555c-0.087,0.163-0.217,0.41-0.242,0.494c0.005,0.055,0.038,0.226,0.065,0.404    c0.102,0.664,0.197,1.29-0.309,1.649C43.662,47.661,41.679,47.699,41.66,47.699z M40.557,45.815    c0.302,0.173,0.701,0.354,0.884,0.375c0.356,0.039,1.153-0.04,1.619-0.113c-0.011-0.08-0.023-0.158-0.033-0.222    c-0.051-0.334-0.095-0.623-0.062-0.868c0.033-0.244,0.147-0.487,0.332-0.838c-0.367,0.031-0.653,0.038-0.814,0.009    c-0.397-0.075-0.661-0.395-0.967-0.765c-0.014-0.017-0.029-0.035-0.044-0.053c-0.085,0.265-0.186,0.667-0.281,1.27    c-0.001,0.007-0.017,0.101-0.018,0.108c-0.041,0.215-0.151,0.397-0.568,1.023C40.589,45.767,40.573,45.791,40.557,45.815z"/></g><g><path d="M52.348,24.83L52.348,24.83c-0.02,0-0.091-0.003-0.11-0.004c-0.84-0.064-1.248-0.938-1.68-1.864    c-0.159-0.341-0.324-0.693-0.487-0.947c-0.137-0.212-0.157-0.479-0.055-0.71c0.103-0.23,0.314-0.395,0.563-0.436    c1.475-0.242,2.882,0.079,4.113,0.938c0.262,0.182,0.38,0.51,0.294,0.817C54.623,23.924,53.304,24.83,52.348,24.83z     M51.908,22.309c0.003,0.006,0.005,0.012,0.008,0.018c0.144,0.307,0.372,0.795,0.525,0.988c0.207-0.055,0.583-0.262,0.848-0.604    C52.849,22.49,52.387,22.355,51.908,22.309z"/></g><g><path d="M45.083,29.112L45.083,29.112c-0.018,0-0.1-0.003-0.119-0.004c-0.918-0.066-1.398-1.038-1.906-2.065    c-0.195-0.395-0.397-0.804-0.6-1.101c-0.145-0.213-0.17-0.485-0.068-0.721s0.318-0.403,0.572-0.442    c1.742-0.27,3.405,0.088,4.865,1.05c0.276,0.182,0.4,0.522,0.307,0.838C47.67,28.241,46.036,29.112,45.083,29.112z M44.313,26.195    c0.031,0.061,0.061,0.122,0.091,0.183c0.199,0.403,0.525,1.063,0.723,1.232c0.307-0.027,0.932-0.338,1.312-0.857    C45.769,26.414,45.057,26.227,44.313,26.195z"/></g><g><path d="M40.245,38.473L40.245,38.473c-0.527,0-0.97-0.301-1.481-0.649c-0.587-0.399-1.319-0.897-2.493-1.249    c-0.255-0.076-0.451-0.283-0.514-0.542c-0.063-0.26,0.018-0.533,0.21-0.717c1.214-1.164,2.573-1.32,3.742-1.32    c0.346,0,0.7,0.014,1.064,0.029c0.225,0.009,0.454,0.019,0.687,0.024c0.313,0.008,0.589,0.21,0.69,0.507    c0.545,1.591,0.084,2.987-1.231,3.735C40.708,38.412,40.481,38.473,40.245,38.473z M38.134,35.7    c0.631,0.311,1.109,0.636,1.474,0.884c0.218,0.148,0.484,0.329,0.613,0.378c0.527-0.317,0.737-0.789,0.636-1.433    c-0.048-0.002-0.096-0.004-0.145-0.006C39.75,35.484,38.867,35.451,38.134,35.7z"/></g><g><path d="M37.955,44.979L37.955,44.979c-0.527,0-0.97-0.301-1.481-0.649c-0.587-0.399-1.319-0.897-2.493-1.249    c-0.255-0.076-0.451-0.283-0.514-0.542c-0.063-0.26,0.018-0.533,0.21-0.717c1.214-1.164,2.573-1.32,3.742-1.32    c0.346,0,0.7,0.014,1.064,0.029c0.225,0.009,0.454,0.019,0.687,0.024c0.313,0.008,0.589,0.21,0.69,0.507    c0.545,1.591,0.084,2.987-1.231,3.735C38.417,44.918,38.19,44.979,37.955,44.979z M35.843,42.206    c0.631,0.311,1.109,0.636,1.474,0.884c0.218,0.148,0.484,0.329,0.613,0.378c0.527-0.317,0.737-0.789,0.636-1.433    c-0.048-0.002-0.096-0.004-0.145-0.006C37.459,41.99,36.577,41.957,35.843,42.206z"/></g><g><path d="M36.599,51.147c-0.271,0-0.539-0.071-0.848-0.153c-0.472-0.125-1.07-0.287-1.912-0.249    c-0.279,0.012-0.516-0.118-0.661-0.34c-0.145-0.222-0.162-0.504-0.045-0.741c0.687-1.393,1.88-1.752,3.033-2.101l0.46-0.142    c0.294-0.093,0.617,0.002,0.811,0.242c0.831,1.026,0.865,2.173,0.093,3.069C37.368,50.922,37.074,51.147,36.599,51.147z     M36.599,49.647L36.599,49.647v0.75V49.647C36.599,49.647,36.599,49.647,36.599,49.647z M35.491,49.387    c0.245,0.051,0.458,0.107,0.645,0.157c0.116,0.031,0.251,0.066,0.35,0.087c0.094-0.151,0.145-0.345,0.041-0.609    C36.12,49.145,35.779,49.255,35.491,49.387z"/></g><g><path d="M35.594,57.297c-0.239,0-0.477-0.055-0.753-0.119c-0.432-0.1-0.983-0.226-1.738-0.178    c-0.264,0.013-0.51-0.101-0.661-0.313c-0.151-0.211-0.182-0.486-0.081-0.727c0.549-1.307,1.681-1.678,2.68-2.004l0.403-0.135    c0.281-0.096,0.594-0.019,0.796,0.2c1.256,1.362,0.534,2.519,0.283,2.841C36.367,57.063,36.081,57.297,35.594,57.297z     M35.594,55.797v0.75V55.797C35.595,55.797,35.595,55.797,35.594,55.797L35.594,55.797z M34.797,55.632    c0.14,0.028,0.267,0.058,0.383,0.085c0.083,0.02,0.177,0.041,0.257,0.057c0.029-0.087,0.034-0.203-0.035-0.356    C35.176,55.491,34.975,55.561,34.797,55.632z"/></g><g><path d="M57.521,44.908c-0.09,0-0.18-0.01-0.269-0.03c-0.661-0.147-0.794-0.794-0.996-1.773c-0.264-1.284-0.662-3.225-2.083-4.22    c-1.566-1.096-2.945-1.245-3.953-1.354c-0.537-0.058-0.961-0.104-1.299-0.295c-0.869-0.491-2.819-2.411-3.388-4.622    c-0.219-0.848,0.118-2.452,1.06-3.668c0.716-0.925,2.071-2.027,4.458-2.027l0.128,0.001c0.314,0.005,0.592,0.206,0.695,0.503    c0.579,1.661,0.773,1.759,1.349,2.05c0.53,0.268,0.925,0.72,1.381,1.243c0.354,0.406,0.757,0.867,1.298,1.328    c0.292,0.248,0.706,0.35,1.231,0.478c1.167,0.286,2.766,0.678,4.097,3.108c1.788,3.261,1.769,6.794,0.56,7.658    c-0.563,0.402-1.158,0.409-1.638,0.416c-0.29,0.003-0.542,0.006-0.763,0.086c-0.207,0.075-0.402,0.259-0.608,0.455    C58.469,44.54,58.081,44.908,57.521,44.908z M50.645,28.433c-1.232,0.085-2.194,0.565-2.865,1.432    c-0.741,0.957-0.868,2.087-0.793,2.375c0.461,1.792,2.1,3.366,2.674,3.691c0.091,0.042,0.441,0.079,0.722,0.109    c1.036,0.112,2.77,0.299,4.651,1.617c1.911,1.337,2.4,3.722,2.693,5.146c0.021,0.1,0.043,0.208,0.065,0.312    c0.272-0.258,0.61-0.565,1.089-0.737c0.458-0.165,0.898-0.17,1.252-0.175c0.387-0.005,0.613-0.014,0.785-0.136    c0.283-0.35,0.596-2.799-1.003-5.717c-1.015-1.851-2.047-2.104-3.14-2.372c-0.631-0.155-1.283-0.315-1.845-0.792    c-0.627-0.533-1.088-1.061-1.457-1.484c-0.368-0.421-0.658-0.754-0.927-0.89C51.628,30.348,51.216,29.942,50.645,28.433z"/></g><g><path d="M56.77,48.2c-0.215,0-0.428-0.093-0.574-0.268c-2.959-3.521-8.774-5.609-8.833-5.63c-0.325-0.115-0.53-0.438-0.496-0.782    c0.071-0.708,0.845-3.208,2.509-3.208c1.598,0.091,5.702,2.448,8.096,8.875c0.127,0.342-0.01,0.726-0.325,0.91    C57.029,48.167,56.898,48.2,56.77,48.2z M48.492,41.129c1.144,0.458,3.642,1.553,5.953,3.216    c-2.154-3.499-4.594-4.504-5.063-4.532l0,0C49.125,39.813,48.707,40.512,48.492,41.129z"/></g><g><path d="M56.346,51.094c-0.02,0-0.039-0.001-0.059-0.002c-0.359-0.028-8.83-0.714-11.529-2.613    c-0.244-0.172-0.637-0.605-0.53-1.577c0.113-1.023,0.721-2.265,1.665-2.657c0.124-0.051,0.264-0.078,0.414-0.078    c1.558,0,8.385,4.242,10.441,5.542c0.291,0.184,0.419,0.543,0.311,0.871C56.955,50.889,56.667,51.094,56.346,51.094z     M45.71,47.313c1.381,0.899,4.675,1.536,7.391,1.914c-3.042-1.826-5.932-3.404-6.719-3.549    C45.987,45.952,45.65,46.94,45.71,47.313z"/></g><g><path d="M48.436,54.354c-2.287,0-3.85-0.41-3.916-0.428c-0.196-0.053-0.362-0.182-0.461-0.358    c-0.328-0.588-0.637-1.879-0.257-2.784c0.19-0.453,0.541-0.77,0.986-0.892c0.563-0.152,1.288,0.117,2.509,0.592    c1.648,0.642,3.906,1.521,6.48,1.528c0.367,0.001,0.68,0.268,0.738,0.631c0.059,0.362-0.154,0.714-0.502,0.83    C52.268,54.058,50.391,54.354,48.436,54.354z M45.251,52.553c0.547,0.11,1.704,0.301,3.185,0.301c0.333,0,0.664-0.01,0.991-0.028    c-1.03-0.304-1.936-0.656-2.674-0.944c-0.643-0.25-1.371-0.534-1.611-0.534C45.073,51.47,45.105,52.092,45.251,52.553z"/></g><g><path d="M44.416,58.584c-0.44,0-0.97-0.297-1.138-1.13c-0.153-0.76,0.008-1.989,0.847-2.343c0.47-0.199,1.192-0.05,2.142,0.171    c0.844,0.196,1.811,0.431,2.593,0.366c0.314-0.015,0.613,0.153,0.742,0.442s0.063,0.628-0.166,0.847    C48.483,57.85,45.911,58.584,44.416,58.584z M44.774,56.516c-0.044,0.146-0.061,0.381-0.042,0.557    c0.465-0.031,0.984-0.128,1.485-0.262c-0.1-0.022-0.197-0.045-0.292-0.067C45.49,56.642,45.042,56.537,44.774,56.516z"/></g><g><path d="M61.072,51.886c-0.025,0-2.547-0.034-2.979-1.259c-0.224-0.634,0.107-1.491,0.37-2.018    c-0.032-0.053-0.071-0.121-0.103-0.175c-0.272-0.477-0.729-1.275-0.252-2.162c0.422-0.783,0.91-1.305,1.925-1.305    c0.169,0,0.36,0.014,0.578,0.041c0.831,0.104,1.319,0.479,1.596,0.708c0.888-0.216,4.426-1.236,5.082-1.558    c0.045-0.065,0.094-0.155,0.145-0.249c0.17-0.316,0.404-0.749,0.904-1.03c0.306-0.171,0.751-0.27,1.223-0.27    c1.027,0,1.811,0.434,2.095,1.162c0.275,0.708,0.168,1.433,0.089,1.962c-0.016,0.105-0.036,0.24-0.043,0.325    c0.06,0.079,0.176,0.205,0.258,0.293c0.349,0.378,0.783,0.849,0.746,1.447c-0.063,1.006-1.43,2.013-2.584,1.782    c-0.521-0.104-0.87-0.342-1.103-0.5c-0.07-0.048-0.166-0.113-0.201-0.126c-0.762,0.147-4.561,0.988-5.276,1.316    c-0.356,0.456-1.273,1.51-2.198,1.602C61.265,51.881,61.174,51.886,61.072,51.886z M59.523,50.065    c0.281,0.151,1.004,0.321,1.549,0.321c0.046,0,0.087-0.001,0.123-0.005c0.201-0.033,0.794-0.536,1.225-1.11    c0.566-0.755,6.132-1.778,6.188-1.789c0.566-0.103,0.978,0.17,1.256,0.359c0.185,0.125,0.33,0.225,0.553,0.269    c0.003,0,0.007,0,0.011,0c0.324,0,0.627-0.227,0.743-0.377c-0.077-0.108-0.22-0.263-0.313-0.364    c-0.285-0.309-0.579-0.627-0.642-1.034c-0.039-0.254,0-0.518,0.046-0.823c0.057-0.382,0.128-0.859-0.004-1.196    c-0.032-0.084-0.3-0.207-0.696-0.207c-0.26,0-0.44,0.052-0.487,0.077c-0.116,0.065-0.197,0.208-0.32,0.436    c-0.103,0.19-0.219,0.406-0.398,0.603c-0.601,0.661-6.26,2.027-6.305,2.027c-0.347,0-0.584-0.199-0.758-0.345    c-0.198-0.167-0.423-0.355-0.866-0.411c-0.148-0.019-0.277-0.029-0.393-0.029c-0.258,0-0.326,0-0.604,0.516    c-0.07,0.132,0.011,0.316,0.233,0.706c0.176,0.306,0.356,0.622,0.356,1.001c0,0.129-0.034,0.257-0.098,0.37    C59.73,49.399,59.56,49.838,59.523,50.065z"/></g><g><path d="M48.02,74.04c-0.022,0-0.111-0.004-0.133-0.006c-0.337-0.03-2.764-0.559-2.957-1.836c-0.1-0.666,0.386-1.444,0.744-1.913    c-0.021-0.058-0.047-0.132-0.067-0.191c-0.179-0.52-0.477-1.39,0.16-2.17c0.379-0.467,0.854-0.966,1.673-0.966    c0.288,0,0.603,0.06,1.022,0.195c0.777,0.253,1.185,0.696,1.417,0.977c1.478-0.106,7.991-0.781,9.036-1.044    c0.054-0.056,0.115-0.13,0.179-0.208c0.228-0.278,0.538-0.659,1.082-0.842c0.188-0.063,0.406-0.094,0.65-0.094    c1.068,0,2.249,0.548,2.44,1.596c0.138,0.746-0.105,1.438-0.282,1.943c-0.035,0.1-0.08,0.227-0.104,0.309    c0.044,0.09,0.134,0.234,0.197,0.336c0.272,0.438,0.611,0.982,0.462,1.564c-0.249,0.963-1.807,1.701-2.873,1.263    c-0.492-0.2-0.779-0.488-0.989-0.698c-0.06-0.061-0.143-0.144-0.175-0.162c-0.8,0.014-8.069,0.529-9.167,0.794    C49.955,73.215,48.91,74.04,48.02,74.04z M46.439,71.916c0.291,0.237,1.151,0.586,1.581,0.624c0.241,0,0.928-0.417,1.413-0.858    c0.703-0.639,10.028-1.075,10.118-1.075c0.61,0.01,0.958,0.358,1.188,0.589c0.157,0.158,0.282,0.283,0.493,0.369    c0.234,0.096,0.661-0.094,0.812-0.229c-0.056-0.12-0.167-0.3-0.24-0.417c-0.221-0.356-0.45-0.724-0.437-1.134    c0.011-0.259,0.099-0.51,0.2-0.801c0.129-0.365,0.288-0.82,0.223-1.175c-0.025-0.14-0.486-0.367-0.965-0.367    c-0.101,0-0.16,0.012-0.174,0.017c-0.126,0.042-0.232,0.167-0.396,0.368c-0.137,0.167-0.291,0.355-0.503,0.516    c-0.676,0.507-10.048,1.301-10.132,1.301c-0.047,0-0.121-0.006-0.167-0.015c-0.341-0.064-0.537-0.306-0.68-0.481    c-0.164-0.201-0.349-0.429-0.775-0.567c-0.255-0.082-0.438-0.122-0.559-0.122c-0.082,0-0.174,0-0.51,0.413    c-0.095,0.116-0.05,0.313,0.096,0.736c0.114,0.333,0.232,0.678,0.161,1.05c-0.024,0.127-0.082,0.246-0.166,0.345    C46.769,71.301,46.518,71.699,46.439,71.916z"/></g><g><path d="M36.62,73.384c-0.977,0-1.67-0.479-1.953-1.348c-0.113-0.348-0.034-0.721,0.508-2.888    c0.406-1.621,1.085-4.336,0.967-5.005c-0.133-0.754-0.176-2.174-0.178-2.233c-0.006-0.214,0.078-0.419,0.233-0.566    c0.797-0.757,2.441-1.285,3.418-1.285c0.514,0,0.897,0.142,1.14,0.42c0.291,0.334,1.136,0.824,1.707,0.919    c0.284,0.047,1.061,0.157,2.091,0.157c0.697,0,1.373-0.052,2.008-0.152c1.285-0.203,2.663-0.545,3.878-0.846    c1.429-0.354,2.263-0.555,2.778-0.555c0.123,0,0.497,0,0.773,0.274c0.376,0.372,0.741,1.063,0.636,1.88    c-0.118,0.915-0.762,1.716-1.914,2.381c-0.859,0.496-2.078,1.062-3.367,1.661c-1.899,0.882-4.052,1.882-4.786,2.569l-0.247,0.231    c-1.413,1.327-3.015,2.831-4.231,3.332l-0.411,0.174C38.754,72.896,37.613,73.384,36.62,73.384z M36.13,71.669    c0.061,0.13,0.168,0.215,0.489,0.215c0.687,0,1.713-0.438,2.463-0.759l0.429-0.181c0.961-0.396,2.588-1.924,3.776-3.038    l0.248-0.232c0.91-0.854,3.081-1.861,5.179-2.836c1.259-0.585,2.447-1.137,3.249-1.6c0.705-0.407,1.123-0.859,1.177-1.274    c0.024-0.187-0.026-0.341-0.082-0.449c-0.469,0.055-1.376,0.279-2.257,0.498c-1.183,0.293-2.656,0.658-4.005,0.872    c-0.713,0.112-1.467,0.17-2.242,0.17c-1.141,0-2.014-0.124-2.336-0.177c-0.833-0.139-1.92-0.716-2.501-1.314    c-0.024-0.003-0.057-0.005-0.1-0.005c-0.556,0-1.558,0.304-2.138,0.682c0.023,0.495,0.069,1.233,0.142,1.642    c0.161,0.914-0.308,2.91-0.989,5.631C36.426,70.329,36.176,71.328,36.13,71.669z"/></g><g><path d="M59.936,85.194c-0.24,0-2.354-0.036-2.546-1.274c-0.025-0.167-0.025-0.329-0.013-0.481    c-0.351,0.115-0.744,0.222-1.128,0.222c-0.823,0-1.187-0.483-1.33-0.771c-0.62-1.238,0.86-2.048,1.941-2.639    c0.488-0.268,0.992-0.543,1.265-0.792c0.966-0.881,5.162-6.036,5.477-6.727c0.069-0.178,0.094-0.401,0.123-0.661    c0.063-0.561,0.142-1.26,0.718-2.044c0.564-0.77,1.979-1.142,3.139-0.746c0.579,0.197,1.04,0.702,1.264,1.386    c0.305,0.931,0.127,2-0.475,2.858c-0.275,0.395-0.854,1.076-1.588,1.939c-1.537,1.809-4.109,4.836-4.564,6.202    c-0.279,0.837-0.402,1.434-0.491,1.87c-0.143,0.693-0.277,1.349-1.055,1.571C60.474,85.165,60.226,85.194,59.936,85.194z     M58.876,83.521c0.211,0.084,0.63,0.173,1.06,0.173c0.093,0,0.167-0.005,0.222-0.011c0.03-0.111,0.066-0.287,0.1-0.448    c0.092-0.446,0.23-1.121,0.537-2.043c0.548-1.642,3.031-4.564,4.845-6.699c0.68-0.8,1.268-1.491,1.503-1.827    c0.392-0.56,0.399-1.158,0.277-1.533c-0.088-0.268-0.228-0.399-0.32-0.432c-0.177-0.06-0.359-0.091-0.542-0.091    c-0.506,0-0.846,0.227-0.905,0.305c-0.339,0.462-0.384,0.861-0.436,1.324c-0.036,0.317-0.077,0.679-0.221,1.046    c-0.384,0.99-5.003,6.501-5.858,7.281c-0.405,0.371-0.99,0.69-1.557,1c-0.253,0.139-0.603,0.33-0.88,0.508    c0.177-0.047,0.351-0.108,0.497-0.16c0.334-0.117,0.599-0.21,0.854-0.21c0.131,0,0.339,0.051,0.452,0.115    c0.636,0.36,0.491,1.078,0.422,1.424C58.906,83.335,58.887,83.434,58.876,83.521z"/></g><g><path d="M36.563,79.571c-0.672,0-2.645-0.414-3.245-1.066c-0.194-0.211-0.289-0.471-0.268-0.732    c0.051-0.617,1.767-3.92,2.746-4.269c1.07-0.381,2.182,0.223,2.698,1.46c0.438,1.05-0.636,4.12-1.403,4.502    C36.945,79.538,36.777,79.571,36.563,79.571z M36.563,78.074v0.747l0.021-0.751C36.583,78.07,36.576,78.071,36.563,78.074z     M34.662,77.612c0.434,0.185,1.24,0.398,1.72,0.448c0.328-0.592,0.837-2.129,0.723-2.531c-0.194-0.464-0.488-0.724-0.805-0.613    C35.988,75.154,35.016,76.821,34.662,77.612z"/></g><g><path d="M30.146,82.763c-0.562,0-0.952-0.094-1.228-0.297c-0.978-0.718-0.972-2.506-0.664-2.983c0.41-0.637,3.42-1.12,3.774-1.12    c0.021,0,0.122,0.004,0.143,0.006c1.292,0.107,1.919,1.79,1.955,2.625c0.008,0.183-0.036,0.456-0.29,0.721    C33.176,82.402,31.083,82.763,30.146,82.763z M29.8,81.244c0.029,0,0.14,0.019,0.346,0.019c0.822,0,1.956-0.274,2.434-0.491    c-0.109-0.412-0.379-0.871-0.536-0.909c-0.49,0-1.86,0.342-2.478,0.543c0.007,0.306,0.083,0.716,0.226,0.841    C29.793,81.245,29.795,81.244,29.8,81.244z"/></g><g><path d="M25.658,83.303c-0.616,0-2.103-0.079-2.607-0.81c-0.628-0.91-0.235-2.563,0.122-2.954    c0.158-0.173,0.354-0.389,2.129-0.389c1.074,0,1.393,0.123,1.497,0.163c1.172,0.45,1.191,2.345,1.066,2.984    C27.732,82.974,27.01,83.303,25.658,83.303z M24.285,80.694c-0.073,0.334-0.1,0.802,0,0.947c0.053,0.012,0.592,0.161,1.373,0.161    c0.359,0,0.609-0.032,0.762-0.064c0.012-0.424-0.093-0.935-0.212-1.055c0.005,0.016-0.288-0.033-0.906-0.033    C24.875,80.65,24.519,80.672,24.285,80.694z"/></g><g><path d="M20.427,82.898c-0.889,0-3.212-0.685-3.557-1.764c-0.336-1.054,0.521-2.521,0.977-2.791    c0.116-0.069,0.32-0.116,0.455-0.116c0.523,0,2.521,0.521,3.08,0.956c0.99,0.771,0.458,2.59,0.151,3.165    C21.399,82.6,21.099,82.898,20.427,82.898z M18.576,79.77c-0.168,0.299-0.331,0.741-0.277,0.91    c0.155,0.166,1.317,0.661,2.014,0.714c0.135-0.402,0.184-0.922,0.104-1.071C20.224,80.204,19.146,79.886,18.576,79.77z"/></g><g><path d="M15.79,79.11c-0.183,0-0.67,0-1.665-1.108c-0.502-0.56-1.331-1.611-1.249-2.368c0.117-1.074,1.438-1.785,1.943-1.785    c0.761,0.061,2.416,2.187,2.563,2.508c0.486,1.064-0.513,2.255-1.13,2.627C16.135,79.055,15.926,79.11,15.79,79.11z     M14.705,75.461c-0.162,0.108-0.319,0.252-0.337,0.337c0.07,0.275,0.865,1.275,1.351,1.684c0.161-0.185,0.3-0.419,0.292-0.528    C15.897,76.733,15.14,75.885,14.705,75.461z"/></g><g><path d="M12.836,74.299c-0.257,0-0.5-0.154-0.813-0.515c-0.432-0.497-1.427-1.973-1.328-2.672    c0.118-0.831,1.081-1.184,1.444-1.184c0.05,0,0.135,0.012,0.182,0.026c0.449,0.131,1.626,2.087,1.731,2.383    c0.302,0.858-0.468,1.689-0.985,1.913C13.006,74.278,12.904,74.299,12.836,74.299z M12.002,70.976    c-0.134,0.061-0.301,0.171-0.316,0.277c0.018,0.313,0.75,1.533,1.158,1.957c0.161-0.151,0.319-0.392,0.267-0.539    C13.011,72.39,12.325,71.382,12.002,70.976z"/></g><g><path d="M11.797,69.485c-0.363,0-1.26-0.037-1.746-0.373c-0.582-0.405-0.275-1.893-0.167-2.339c0.208-0.86,0.506-1.287,0.94-1.346    c0.262-0.051,0.511,0.143,0.559,0.405c0.071,0.386,0.365,1.73,1.185,2.843c0.108,0.147,0.128,0.342,0.051,0.507    c-0.077,0.166-0.238,0.276-0.42,0.289C12.067,69.48,11.932,69.485,11.797,69.485z M10.716,68.338    c0.11,0.042,0.29,0.087,0.533,0.116c-0.195-0.364-0.35-0.726-0.471-1.06C10.718,67.766,10.689,68.138,10.716,68.338z"/></g><g><path d="M59.028,91.667c-0.275,0-0.51-0.09-0.679-0.259c-0.258-0.258-1.054-2.146-2.364-5.614    c-0.06-0.157-0.036-0.335,0.063-0.471c0.388-0.533,1.164-0.574,1.752-0.093c0.441,0.36,2.621,4.841,2.621,5.387    C60.422,91.248,59.583,91.667,59.028,91.667z M57.119,85.963c0.798,2.089,1.661,4.233,1.924,4.703    c0.123-0.005,0.271-0.071,0.354-0.128c-0.24-0.679-1.903-4.155-2.258-4.56C57.134,85.974,57.126,85.968,57.119,85.963z"/></g><g><path d="M61.234,94.68c-0.176,0-0.34-0.093-0.431-0.246c-0.156-0.265-0.436-0.58-0.682-0.858c-0.469-0.53-0.778-0.881-0.688-1.285    c0.114-0.512,0.764-0.708,1.289-0.783c0.232-0.029,0.457,0.1,0.538,0.319c0.007,0.019,0.627,1.976,0.448,2.512    c-0.063,0.186-0.227,0.318-0.422,0.339C61.27,94.679,61.252,94.68,61.234,94.68z"/></g><g><path d="M66.885,92.333c-0.092,0-0.184-0.025-0.265-0.076c-0.262-0.163-0.655-0.314-1.002-0.448    c-0.66-0.254-1.096-0.422-1.203-0.822c-0.135-0.507,0.353-0.98,0.785-1.289c0.19-0.136,0.45-0.121,0.625,0.036    c0.014,0.013,1.464,1.463,1.554,2.021c0.03,0.193-0.055,0.388-0.218,0.496C67.077,92.305,66.981,92.333,66.885,92.333z"/></g><g><path d="M69.801,89.996c-0.092,0-0.184-0.025-0.265-0.076c-0.262-0.163-0.655-0.314-1.002-0.448    c-0.66-0.254-1.096-0.422-1.203-0.822c-0.135-0.507,0.352-0.98,0.782-1.289c0.191-0.133,0.449-0.121,0.624,0.034    c0.015,0.013,1.469,1.467,1.558,2.022c0.03,0.193-0.055,0.388-0.218,0.496C69.993,89.968,69.897,89.996,69.801,89.996z"/></g><g><path d="M63.438,90.659c-0.11,0-0.221-0.016-0.327-0.046c-0.111-0.032-0.208-0.103-0.274-0.198    c-0.608-0.89-3.324-4.745-3.324-4.745c-0.085-0.121-0.112-0.272-0.074-0.415c0.037-0.143,0.136-0.262,0.269-0.324    c0.067-0.032,0.172-0.055,0.246-0.055c0.817,0,4.523,3.247,4.909,3.658c0.155,0.164,0.292,0.331,0.277,0.567    C65.11,89.566,64.365,90.659,63.438,90.659z M61.847,87.251c0.639,0.908,1.314,1.874,1.675,2.395    c0.194-0.061,0.425-0.31,0.548-0.5C63.701,88.769,62.755,87.968,61.847,87.251z"/></g><g><path d="M66.666,88.008c-0.291,0-0.699-0.222-3.203-1.889c-0.613-0.408-1.246-0.83-1.416-0.919c-0.226-0.12-0.324-0.39-0.23-0.627    c0.095-0.237,0.349-0.367,0.599-0.297c1.852,0.512,5.008,1.48,5.35,2.206c0.138,0.292,0.13,0.6-0.022,0.867    c-0.252,0.447-0.836,0.637-1.02,0.655L66.666,88.008z M65.695,86.39c0.429,0.275,0.8,0.503,0.988,0.596    c0.046-0.021,0.1-0.051,0.139-0.08C66.639,86.777,66.229,86.595,65.695,86.39z"/></g><g><path d="M75.221,53.792c-0.504,0-0.918-0.16-1.166-0.452c-0.468-0.551-0.287-1.196-0.18-1.582    c0.055-0.196,0.111-0.399,0.081-0.513c-0.226-0.815-0.557-1.877-0.877-2.902c-0.715-2.29-1.007-3.266-1.013-3.705    c-0.01-0.658,0.245-1.057,0.46-1.275c0.417-0.421,1.056-0.558,1.756-0.364c0.861,0.238,0.915,1.024,0.941,1.402    c0.011,0.167,0.022,0.326,0.069,0.417c0.576,1.106,1.307,2.788,1.894,4.139l0.34,0.778c0.615,0.301,1.687,0.98,1.681,2.053    c-0.005,0.913-1.489,1.631-2.437,1.363C76.416,53.553,75.839,53.792,75.221,53.792z M73.671,44.411    c-0.073,0.002-0.106,0.053-0.104,0.205c0.022,0.327,0.556,2.034,0.944,3.28c0.326,1.043,0.662,2.122,0.891,2.951    c0.142,0.514,0.013,0.977-0.081,1.314c-0.011,0.038-0.023,0.084-0.035,0.129c0.166-0.013,0.312-0.074,0.36-0.131    c0.006-0.007,0.022-0.027,0.009-0.115c-0.06-0.366,0.157-0.72,0.51-0.834c0.352-0.113,0.736,0.047,0.901,0.378    c0.06,0.12,0.102,0.126,0.177,0.126c0.12,0,0.258-0.049,0.367-0.105c-0.153-0.177-0.483-0.429-0.939-0.616    c-0.18-0.073-0.323-0.213-0.401-0.391l-0.458-1.048c-0.577-1.33-1.296-2.985-1.848-4.045c-0.192-0.369-0.218-0.737-0.236-1.006    c-0.002-0.028-0.004-0.06-0.006-0.09C73.703,44.411,73.687,44.411,73.671,44.411z"/></g><g><path d="M74.278,58.727c-0.053,0-0.173-0.02-0.224-0.036c-0.231-0.075-0.94-0.306-0.529-2.899c0.24-1.511,0.532-1.728,0.95-1.641    c0.326,0.063,0.887,0.123,0.887,0.123c0.178,0.02,0.332,0.132,0.404,0.296c0.257,0.585-0.187,2.841-0.72,3.658    C74.83,58.559,74.572,58.727,74.278,58.727z M74.661,55.192c-0.141,0.502-0.272,1.48-0.262,2.107    c0.223-0.588,0.431-1.556,0.454-2.081C74.792,55.211,74.727,55.202,74.661,55.192z"/></g><g><path d="M80.79,57.771L80.79,57.771c-0.438,0-0.725-0.386-0.818-0.513c-0.57-0.77-1.262-2.816-1.072-3.441    c0.052-0.171,0.191-0.301,0.365-0.342c0.004-0.001,0.551-0.127,0.866-0.229c0.05-0.017,0.109-0.025,0.161-0.025    c0.214,0,0.658,0,1.138,2.166c0.3,1.355,0.195,2.07-0.337,2.317C81.026,57.734,80.863,57.771,80.79,57.771z M79.876,54.354    c0.085,0.5,0.413,1.446,0.709,2.01c-0.064-0.624-0.313-1.579-0.513-2.062C80.005,54.321,79.938,54.338,79.876,54.354z"/></g><g><path d="M77.98,58.747c-0.002,0-0.003,0-0.005,0c-1.287-0.013-1.511-3.652-1.513-3.688c-0.021-0.343-0.057-0.979,0.485-1.047    c0.327-0.042,0.875-0.161,0.879-0.162c0.182-0.04,0.372,0.025,0.492,0.17c0.464,0.562,0.769,3.361,0.354,4.241    C78.468,58.699,78.12,58.747,77.98,58.747z M77.45,54.943c0.02,0.555,0.204,1.625,0.417,2.295    c0.024-0.702-0.086-1.783-0.232-2.329C77.575,54.921,77.513,54.933,77.45,54.943z"/></g><g><path d="M73.572,61.574c-0.03,0-0.062-0.003-0.093-0.009c-0.224-0.042-0.391-0.229-0.406-0.456l-0.125-1.791    c-0.013-0.18,0.072-0.352,0.222-0.451c0.147-0.099,0.34-0.111,0.5-0.031c0.155,0.077,0.487,0.112,0.674,0.113    c0.171,0.001,0.33,0.089,0.422,0.233c0.091,0.145,0.103,0.326,0.029,0.48l-0.771,1.625C73.94,61.465,73.763,61.574,73.572,61.574z    "/></g><g><path d="M78.256,61.753c-0.22,0-0.414-0.144-0.479-0.354l-0.521-1.718c-0.052-0.172-0.008-0.358,0.114-0.488    c0.123-0.131,0.308-0.182,0.481-0.144c0.109,0.027,0.678-0.04,0.681-0.04c0.171-0.04,0.343,0.013,0.464,0.133    c0.121,0.121,0.173,0.295,0.136,0.462l-0.388,1.757c-0.049,0.223-0.241,0.384-0.469,0.393    C78.269,61.753,78.262,61.753,78.256,61.753z"/></g><g><path d="M81.521,60.465c-0.179,0-0.348-0.096-0.438-0.258l-0.869-1.571c-0.087-0.157-0.083-0.349,0.01-0.502    s0.256-0.238,0.44-0.24c0.001,0,0.001,0,0.001,0c0.203,0,0.535-0.124,0.657-0.181c0.157-0.072,0.338-0.061,0.481,0.032    s0.23,0.253,0.229,0.425l-0.013,1.799c-0.002,0.227-0.156,0.425-0.377,0.48C81.604,60.46,81.563,60.465,81.521,60.465z"/></g></g><text x="0" y="115" fill="#000000" font-size="5px" font-weight="bold" font-family="'Helvetica Neue', Helvetica, Arial-Unicode, Arial, Sans-serif">Created by Erik Kazuo Takara</text><text x="0" y="120" fill="#000000" font-size="5px" font-weight="bold" font-family="'Helvetica Neue', Helvetica, Arial-Unicode, Arial, Sans-serif">from the Noun Project</text></svg>