<svg version="1" xmlns="http://www.w3.org/2000/svg" width="933.333" height="933.333" viewBox="0 0 700.000000 700.000000"><path d="M195.5 93.1c-18 2-36.4 9.5-58 23.7C88 149.2 53.3 195.6 42.4 244c-6.1 27.1-5.5 63.7 1.5 95.5 8.4 38.1 26.2 74.8 52.4 107.9 10.4 13 31 33.7 36.4 36.5 7.5 3.8 15.9 5 42.3 6 42 1.7 61 5 101.7 17.7 54.4 16.9 94.2 25.9 138 31.1 10.8 1.2 22.8 1.7 44.8 1.8 32.3 0 50.6-1.4 60.9-4.5 13.7-4.3 31.6-17 48.1-34.1 6.2-6.5 13.8-13 20-17.3 36.7-25.3 44.6-33.7 59-62.1 19.5-38.3 22.4-77.9 8.4-112.2-2.6-6.6-4.3-9-10.5-15-7.7-7.6-51.5-40.9-66.4-50.6-10.1-6.5-53.5-31.4-63.5-36.4-5.8-2.9-9.6-6.2-22.5-19.2-16.4-16.5-40.1-42.2-51.3-55.6-17-20.3-33-28.3-67-33.7-13.3-2.2-17.2-2.3-61.7-2.3-40 0-49.2-.3-58-1.7-21.3-3.5-43.2-4.5-59.5-2.7zm36.5 29c6.3.5 15.8 1.7 21 2.7 8 1.4 17.2 1.6 58 1.7 41.8 0 50 .2 59.5 1.8 19.5 3.2 30.8 7.1 39.2 13.4 1.7 1.3 6.7 6.6 11 11.6 4.3 5.1 12.7 14.6 18.7 21.2 36.7 40.3 48.5 51.4 63.3 59.5 19.3 10.6 52 29.4 60.3 34.8 8.4 5.4 55.5 40.5 61.6 45.9 4 3.5 7.9 13.2 9.9 24.8 3.8 22.1-.3 45-12.5 69.2-7.2 14.4-13.1 23.4-18.4 28.4-4.5 4.3-23.7 18.9-24.8 18.9-.4 0-1.4-2.6-2.3-5.8-2.6-8.8-6.3-14.8-13.6-21.7-7.8-7.3-16.8-12-25-13-7.1-.9-18.5.9-26.5 4.1l-6.2 2.5-5.8-5.9c-7-7-17.9-12.7-25.9-13.7-7-.9-19.1.8-26.5 3.8l-5.7 2.3-5.4-4.8c-3-2.7-8.3-6.3-11.9-8.1-6.1-3-7.1-3.2-17.5-3.2-7.9 0-12.7.5-17.1 1.9l-6.1 1.8-7.1-7c-9.4-9.3-17.4-13.3-27.7-14-18.5-1.2-36.2 6.5-42.8 18.6-4.4 8.1-4.5 12.6-.4 28.8 3 12 4.3 18.9 7.3 38.1.6 4.1 4.8 9.2 9.1 10.9 10.1 4.3 30.8-1.9 45.4-13.6l3.7-2.9 1.1 5.7c.6 3.1 1.4 8.5 1.7 12 1.1 10.4 6.2 15.9 15.6 16.9 3.1.3 8 0 10.9-.7 7.1-1.6 22.1-8.9 28.5-13.9l5.2-3.9.6 5.6c1.5 12.6 1.9 14.4 4.3 17.3 5.1 6 12.5 7.8 22.6 5.5 11.4-2.7 24.5-9.5 32.3-16.8 1.8-1.6 3.4-2.6 3.7-2.1.2.4 1 4.6 1.6 9.3.7 4.7 1.4 9.9 1.7 11.6.2 1.7 1.5 4.3 2.8 5.7l2.3 2.5-9.6.9c-14.6 1.2-64.1.9-76.1-.5-44.6-5.4-85.3-14.5-133-29.7-27.8-8.9-54.9-15-77-17.5-5.2-.6-20.6-1.5-34.1-2-17.2-.6-25.7-1.3-28-2.3-1.9-.8-8.2-6.4-14.1-12.6-29.7-31-50.4-67.6-60.3-106.8-4.7-18.8-5.9-29.1-5.9-53.3 0-19.6.3-23.8 2.2-32.7 6.5-29.9 20.5-55 44.4-79.8 27.6-28.7 61.1-49.1 84.8-51.8 7.2-.8 21.9-.7 33 .4zm119.7 284c4.5 2.8 9.3 9.5 9.3 12.9 0 5.6-9.4 16.1-18.9 21-2.6 1.3-4.1.2-4.1-3.2 0-.9-1.6-7.8-3.5-15.4-1.9-7.6-3.3-13.9-3.2-14.1.2-.1 1.8-.9 3.7-1.7 5.2-2.3 12.6-2 16.7.5zm61.9 16.8c3.8 2.3 8 7.6 8.9 11.1.9 3.6-.8 7.3-5.7 12.6-4.8 5.3-14.3 11.8-15.8 10.9-.6-.3-1-1.6-1-2.8 0-1.2-1.6-8.5-3.5-16.1-1.9-7.7-3.5-14.1-3.5-14.3 0-.2 1.5-1 3.3-1.8 4.8-2.1 13.6-1.9 17.3.4zm62.3 11.1c5 3.7 8.1 8.4 8.1 12.6 0 6.1-8.6 15.6-18.6 20.7l-3 1.5-1.8-9.1c-1.1-5.1-2.9-12.7-4.1-17l-2.3-7.7 2.1-1.2c7.1-3.8 14.2-3.7 19.6.2zm63.7 12.6c8.3 5.5 10.9 11.5 7.9 17.8-2 4.2-10.4 12.1-16.2 15.4l-4.1 2.2-1.7-7.7c-.9-4.3-2.7-11.9-4.1-16.9-1.3-5.1-2.4-9.4-2.4-9.8 0-.9 9.3-3.5 13.1-3.5 2.3-.1 5 .8 7.5 2.5z"/><path d="M234 159.6c-19.2 5-39.4 21.8-48 39.9-7.8 16.4-7.8 36 .1 55.2 8.7 20.7 30.9 45.1 55.8 61.1 17.3 11.2 52.3 19.5 87.6 20.9 29.4 1.1 39.9-2 53.7-15.7 9.8-9.8 13.9-17.8 14.6-28.6 1.1-17.5-9.7-31.5-46.3-60-10.4-8.1-26-21.4-34.5-29.5-26.7-25.4-43.9-38.3-57.2-42.8-7.3-2.5-17.6-2.7-25.8-.5zM561.2 301c-15 8.7-19.9 30.2-9.8 43.4 1.3 1.7 5.6 4.9 9.6 7.1 9.8 5.4 15.3 11.2 22 23.6 6.5 12 9.3 14.3 13.8 11.9 9-5 13.2-35.4 7-50.8-5.5-13.3-14.8-26-24.6-33.5-7.6-5.7-10.5-5.9-18-1.7z"/></svg>